<svg width="84" height="84" viewBox="0 0 84 84" fill="none" xmlns="http://www.w3.org/2000/svg">
<path fill-rule="evenodd" clip-rule="evenodd" d="M82.2451 30.8803C88.1989 53.1002 75.0128 75.9392 52.7929 81.893C30.5732 87.8467 7.73405 74.6607 1.78024 52.4408C-4.17352 30.221 9.01267 7.38189 31.2324 1.42813C53.4523 -4.52567 76.2913 8.66055 82.2451 30.8803ZM29.4475 37.681C33.2329 36.6667 35.4795 32.7755 34.4651 28.9898C33.4508 25.2044 29.5596 22.9577 25.7742 23.972C21.9885 24.9864 19.7419 28.8777 20.7562 32.663C21.7706 36.4488 25.6618 38.6954 29.4475 37.681ZM50.9046 31.9316C54.6903 30.9172 56.9369 27.026 55.9225 23.2403C54.9082 19.4549 51.017 17.2082 47.2313 18.2226C43.4459 19.2369 41.1993 23.1282 42.2136 26.9136C43.228 30.6993 47.1192 32.9459 50.9046 31.9316ZM46.0638 55.5876C36.8468 58.0572 27.3727 52.5874 24.9031 43.3704L17.7506 45.2869C21.2787 58.454 34.8132 66.2683 47.9803 62.7401C61.1477 59.2119 68.9616 45.6774 65.4335 32.5104L58.2809 34.4269C60.7505 43.6438 55.281 53.1178 46.0638 55.5876Z" fill="#F9B233"/>
</svg>
