<svg width="30" height="31" viewBox="0 0 30 31" fill="none" xmlns="http://www.w3.org/2000/svg">
<path d="M13.5401 13.5133V16.6539C13.5401 16.6539 10.2701 17.0028 10.2701 18.7476C10.2701 20.4923 11.7883 21.7718 11.7883 21.7718C11.7883 21.7718 13.6569 22.586 14.8248 21.0739C15.9927 19.5618 15.4088 16.4213 15.4088 16.4213V9.32595L15.5255 6.8833L18.4453 6.99962C18.4453 6.99962 18.562 9.90753 20.781 10.6054L23 11.3033L22.8832 14.2112C22.8832 14.2112 21.5985 14.6765 20.4307 13.746C19.2628 12.8154 18.3285 12.1175 18.3285 12.1175L18.562 18.8639C18.562 18.8639 18.6788 21.6555 17.3942 22.935C16.1095 24.2145 14.4745 24.6797 14.4745 24.6797C14.4745 24.6797 10.0365 25.494 8.9854 23.8655C7.93431 22.2371 7 19.9108 7 19.9108C7 19.9108 7.35036 15.956 9.21898 14.7928C11.0876 13.6297 13.5401 13.5133 13.5401 13.5133Z" fill="#F9B233"/>
</svg>
