<svg width="30" height="31" viewBox="0 0 30 31" fill="none" xmlns="http://www.w3.org/2000/svg">
<path d="M11.669 18.2946L11.7749 23.7329L12.7287 24.8833L15.9079 24.7787L17.0736 24.1512L17.2855 19.445L17.1796 18.2946H18.7691C18.7691 18.2946 19.8289 19.1312 20.2528 16.935C20.6767 14.7388 20.7826 13.7975 20.7826 13.7975C20.7826 13.7975 20.6767 13.0654 19.299 13.0654C17.9214 13.0654 17.1796 12.9609 17.1796 12.9609V12.0196H19.6169C19.6169 12.0196 21.1006 12.2288 20.9946 10.9738C20.8886 9.71879 20.8886 7.41797 20.8886 7.41797C20.8886 7.41797 20.7826 6.99964 18.3453 6.89506C15.9079 6.79048 14.7422 7.41797 14.7422 7.41797C14.7422 7.41797 12.3048 8.98671 11.9869 10.1371C11.669 11.2875 11.9869 12.8563 11.9869 12.8563L9.23157 13.17L9.1256 16.6213C9.1256 16.6213 8.48976 18.2946 10.0794 18.2946H11.669Z" fill="#1D71B8"/>
<path d="M10.8213 14.948V16.8305L12.7288 16.7259L13.4706 17.458L13.6826 20.3863V22.8963H15.4841L15.3781 18.3992C15.3781 18.3992 15.3781 16.6213 16.2259 16.6213C17.0737 16.6213 18.2394 16.8305 18.2394 16.8305L18.6633 14.948L16.5438 15.0526C16.5438 15.0526 15.6961 15.0526 15.4841 13.3792C15.2722 11.7059 16.014 10.7647 16.014 10.7647H18.9812V8.673C18.9812 8.673 16.1199 8.35925 15.0602 9.3005C14.0005 10.2417 13.5766 11.8105 13.5766 11.8105V14.8434L10.8213 14.948Z" fill="white"/>
</svg>
