<svg width="30" height="31" viewBox="0 0 30 31" fill="none" xmlns="http://www.w3.org/2000/svg">
<path d="M10.7368 6.8833L8.10526 7.82516C8.10526 7.82516 6.31579 9.60423 6.21053 10.7554C6.10526 11.9066 6 20.8019 6 20.8019L6.63158 22.267L8 23.7321L9.89474 24.674L19.0526 24.8833L21.3684 24.0461L22.7368 22.7903L23.7895 20.9066L24 11.3833L23.1579 9.39493L21.6842 7.92981L19.5789 7.0926L10.7368 6.8833Z" fill="#ED409F"/>
<path d="M10.5264 9.08097C10.5264 9.08097 8.10536 9.39492 7.89484 11.4879C7.68431 13.581 7.89484 19.3368 7.89484 19.3368C7.89484 19.3368 7.68431 21.7438 8.94747 22.4763C10.2106 23.2089 12.6317 23.4182 12.6317 23.4182C14.0348 23.3836 15.439 23.3481 16.8422 23.3135C17.2685 23.4077 19.3327 23.8211 20.8422 22.581C21.8222 21.7762 22.0769 20.6805 22.3159 19.6507C22.6833 18.0705 22.1054 13.4763 22.1054 13.4763V11.4879L21.2633 9.91818L19.0527 8.97632L10.5264 9.08097Z" fill="white"/>
<path d="M10.7369 18.6043L12.4211 20.4881C12.4211 20.4881 14.1053 21.3253 15.4737 21.2206C16.8421 21.116 18.4211 19.4415 18.4211 19.4415C18.4211 19.4415 20 17.2439 19.3684 15.6741C18.7369 14.1043 16.7369 12.6392 16.7369 12.6392L14.1053 12.116C14.1053 12.116 11.7895 13.3718 11.3684 13.895C10.9474 14.4183 10.1053 17.0346 10.7369 18.6043Z" fill="#ED409F"/>
<path d="M12.2104 17.0344L13.3683 19.0228C13.3683 19.0228 15.7894 19.7554 16.9473 18.4996C18.1052 17.2437 17.5789 15.9879 17.5789 15.9879L16.6315 14.8368C16.6315 14.8368 14.9473 13.6856 13.9999 13.9996C13.0526 14.3135 12.2104 15.9879 12.2104 15.9879V17.0344Z" fill="white"/>
<path d="M18.6318 12.7437C18.6318 12.7437 19.5791 13.3716 20.2107 12.8484C20.8423 12.3251 20.5265 11.2786 20.5265 11.2786C20.5265 11.2786 19.5791 10.7554 19.0528 11.0693C18.5265 11.3833 18.316 12.1158 18.6318 12.7437Z" fill="#ED409F"/>
</svg>
